<?xml version="1.0" encoding="utf-8"?>
<!-- Generator: Adobe Illustrator 24.2.1, SVG Export Plug-In . SVG Version: 6.00 Build 0)  -->
<svg version="1.1" id="Ebene_1" xmlns="http://www.w3.org/2000/svg" xmlns:xlink="http://www.w3.org/1999/xlink" x="0px" y="0px"
	 viewBox="0 0 150 150" style="enable-background:new 0 0 150 150;" xml:space="preserve">
<style type="text/css">
	.st0{fill:#4818F4;}
</style>
<g>
	<path class="st0" d="M75.1,150.2C33.7,150.2,0,116.5,0,75.1C0,33.7,33.7,0,75.1,0c41.4,0,75.1,33.7,75.1,75.1
		C150.2,116.5,116.5,150.2,75.1,150.2z M75.1,4.1C35.9,4.1,4.1,35.9,4.1,75.1c0,39.2,31.9,71.1,71.1,71.1
		c39.2,0,71.1-31.9,71.1-71.1C146.2,35.9,114.3,4.1,75.1,4.1z"/>
</g>
<path class="st0" d="M43.2,105.5c0,0-3.5,0.1-3.5,1.7c0,1.7,3.5,1.8,3.5,1.8h12.3c2.7,0,2.9,0.9,2.9,2.1c0,1.2-0.2,2.1-2.9,2.1H43.2
	c0,0-3.5,0.3-3.5,2.1c0,1.8,3.5,2,3.5,2h12.5c2.7,0,2.9,0.9,2.9,2.1c0,1.2-0.2,2.1-2.9,2.1H43.2c0,0-3.5,0.2-3.5,1.8
	c0,1.6,3.5,1.9,3.5,1.9s10.6,0.7,15.7,0.8c4.7,0.1,6.9-8.6,9.1-8.8c2.2-0.1,40.5,1.6,40.5,1.6c2.7,0,2.9-2.5,2.9-3.7
	c0-1.2-0.2-3.7-2.9-3.7L68.8,113c-0.1,0-0.3,0-0.7,0c-1.8-0.1-3.9-8.5-9-8.3C53.8,104.9,43.2,105.5,43.2,105.5z"/>
<path class="st0" d="M101.5,81.6C96.5,89,87.7,92.8,75.3,92.8c-9.5,0-16.9-2.5-22.3-7.4c-5.7-5.1-8.6-12.3-8.6-21.8v-1h66.9v-2.3
	c0-10.7-3.4-18.9-10.2-24.8c-6.2-5.4-14.8-8.1-25.8-8.1c-11.2,0-20,3-26.4,9.1c-6.6,6.2-9.9,14.8-9.9,25.9c0,11,3.2,19.6,9.7,25.7
	c6.5,6.1,15.4,9.2,26.6,9.2c8.6,0,16-1.9,22.1-5.8c4.3-2.5,7.5-5.8,9.7-9.9H101.5z M76.3,31.8c8.7,0,15.8,2.3,21.1,6.8
	c5.5,4.8,8.3,11.6,8.3,20.2H44.6C45.7,40.8,56.2,31.8,76.3,31.8z"/>
</svg>
